<?xml version="1.0" encoding="UTF-8" standalone="no"?>
<svg
   version="1.1"
   width="2048"
   height="2048"
   viewBox="0 0 2048 2048"
   id="svg1"
   xmlns="http://www.w3.org/2000/svg"
   xmlns:svg="http://www.w3.org/2000/svg">
  <defs
     id="defs1" />
  <path
     style="fill:#000000"
     d="m 465.74003,1927.1083 -9.50997,-4.9148 -3.24003,-2.1777 -3.24003,-2.1777 -4,-3.1221 -4,-3.1222 -2.59144,-2.6719 -2.59144,-2.6719 -4.45123,-7 -4.45124,-7 -10.01654,-16.75 -10.01655,-16.75 -6.74826,-11.5 -6.74826,-11.5 -8.74676,-15 -8.74677,-15 -11.99558,-20.75 -11.99558,-20.75 -12.51509,-21.75 -12.51508,-21.75 -19.23551,-33.75 -19.23551,-33.75 -11.75612,-20.75 -11.75613,-20.75 -11.24934,-20 -11.24934,-20 -9.88609,-17.75 -9.88609,-17.75 -8.96779,-16.4507 -8.96778,-16.4506 -3.64096,-7.2994 -3.64096,-7.2993 -1.19853,-4.75 -1.19853,-4.75 0.0489,-5.5 0.0489,-5.5 1.35608,-5 1.35607,-5 3.12671,-6.5 3.12672,-6.5 6.6487,-12.4718 6.6487,-12.4718 10.11315,-18.2782 10.11315,-18.2782 10.4047,-18.5 10.40471,-18.5 15.09674,-26.5 15.09674,-26.5 16.14662,-28 16.14663,-28 18.5095,-31.75 18.50949,-31.75 12.98799,-22 12.98799,-22 15.75604,-26.25 15.75603,-26.25 8.89618,-14.25 8.89618,-14.25 3.69353,-5.3812 3.69353,-5.3812 7.26316,-7.6225 7.26316,-7.6225 -5.71215,-4.7463 -5.71215,-4.7463 -3.39878,-4.5 -3.39878,-4.5 -4.7239,-7.25 -4.7239,-7.25 -6.76686,-11 -6.76687,-11 -10.00158,-16.75 -10.00158,-16.75 -7.5045,-12.75 -7.50451,-12.75 -12.23965,-21 -12.23966,-21 -17.5071,-30.25 -17.50711,-30.25 -20.75029,-36 -20.75029,-36 -20.99442,-36.5 -20.99442,-36.5 -16.16607,-28.25 -16.16608,-28.25 -2.11042,-4.25 -2.11043,-4.25 -1.31166,-3.97259 -1.31166,-3.97259 -0.73432,-4.52741 -0.73432,-4.52741 -1.1e-4,-4.25 -1e-4,-4.25 0.69408,-4.27563 0.69409,-4.27564 1.09839,-3.97436 1.09839,-3.97437 4.1255,-8 4.12549,-8 6.89401,-12.5 6.894,-12.5 8.25334,-14.75 8.25333,-14.75 11.01085,-19.5 11.01084,-19.5 17.08485,-30 17.08485,-30 16.8366,-29.37472 16.83661,-29.37471 17.81831,-30.87529 17.81831,-30.87528 14.99849,-25.75 14.99849,-25.75 10.71475,-18.17465 10.71476,-18.17465 7.12067,-11.82535 7.12067,-11.82535 3.22326,-5.20632 3.22326,-5.20633 2.89315,-3.1268 2.89316,-3.12679 3.35684,-2.72497 3.35685,-2.72496 4.18514,-2.79902 4.18514,-2.79902 9.39567,-4.76789 9.39567,-4.7679 118.66919,0.0242 118.66919,0.0242 99.25,0.45823 99.25,0.45823 15.75,0.51207 15.75,0.51206 7,0.53363 7,0.53364 3.30514,0.6804 3.30515,0.68041 3.46132,1.74309 3.46131,1.74309 4.17437,3.09511 4.17437,3.09511 4.41946,4.26036 4.41945,4.26037 4.69649,7.0679 4.69649,7.0679 4.98683,8 4.9869,8 9.2427,15.25 9.2427,15.25 12.0161,20.25 12.016,20.25 9.2483,15.75 9.2483,15.75 10.5012,18 10.5012,18 14.7486,25.5 14.7487,25.5 14.7627,25.75 14.7626,25.75 10.6308,18.75 10.6308,18.75 11.1001,19.75 11.1002,19.75 9.2579,16.75 9.2579,16.75 6.0636,11.32545 6.0637,11.32545 3.7715,7.67455 3.7716,7.67455 2.1198,8 2.1198,8 1.5177,-0.1133 1.5176,-0.1133 6.2253,-1.98602 6.2253,-1.98602 3.25,-0.50657 3.25,-0.50658 7.5,-0.53017 7.5,-0.53016 18.5,-0.50736 18.5,-0.50736 124.25,-0.2924 124.25,-0.2924 67.5,0.56878 67.5,0.56878 17.75,0.49624 17.75,0.49625 5.5,0.48011 5.5,0.48011 4.25,1.31427 4.25,1.31427 3.3239,1.7365 3.3239,1.73649 3.4847,2.93324 3.4847,2.93324 3.7858,4.51217 3.7857,4.51216 4.8956,6.89452 4.8956,6.89451 6.7148,10.5 6.7148,10.5 12.5942,21 12.5942,21 14.0041,24 14.0042,24 20.2512,35 20.2512,35 23.4997,40.75 23.4998,40.75 20.6544,36 20.6544,36 13.3272,23.5 13.3272,23.5 3.8835,7.09833 3.8835,7.09833 0.9732,3.12694 0.9732,3.1269 0.8055,4.5248 0.8056,4.5247 -0.031,8 -0.031,8 -1.012,5.7511 -1.012,5.751 -1.5767,4.499 -1.5767,4.4989 -2.0289,3.75 -2.0289,3.75 -5.2567,9.5 -5.2567,9.5 -11.4844,20.25 -11.4844,20.25 -20.8609,36.25 -20.8609,36.25 -21.1446,36.5 -21.1445,36.5 -21.0022,36 -21.0022,36 -18.4976,31.5 -18.4976,31.5 -10.2586,17.25 -10.2586,17.25 -6.2336,10.2473 -6.2335,10.2472 -1.8948,2.7903 -1.8949,2.7903 -3.9081,3.6498 -3.9081,3.6497 -5.9156,3.9141 -5.9156,3.914 -3.8421,1.4715 -3.842,1.4715 -2.75,0.5409 -2.75,0.5409 -5.1581,0.5092 -5.1581,0.5092 -15.8419,0.6231 -15.8419,0.623 -190.75,-0.01 -190.75,-0.01 -22.3059,-0.6175 -22.306,-0.6174 -6.694,-0.4895 -6.6941,-0.4896 -3.5,-0.5669 -3.5,-0.5668 -5.9359,-2.217 -5.936,-2.217 -0.5929,0.2275 -0.5929,0.2275 -2.101,7.9276 -2.1011,7.9276 -3.7129,7.5 -3.713,7.5 -6.0863,11.25 -6.0863,11.25 -8.2751,15 -8.2751,15 -12.497,22.25 -12.497,22.25 -15.4907,27.25 -15.4906,27.25 -15.5055,27 -15.5054,27 -13.754,23.75 -13.7539,23.75 -12.9441,22.157 -12.9441,22.157 -8.3079,14.093 -8.308,14.093 -10.5777,17.75 -10.5777,17.75 -7.9277,13 -7.92765,13 -5.22407,8 -5.22406,8 -3.39052,4 -3.39052,4 -2.92668,2.785 -2.92668,2.785 -2.30293,1.3453 -2.30292,1.3452 -3.67077,1.2486 -3.67078,1.2485 -5.2763,0.9831 -5.2763,0.9831 -5,0.5007 -5,0.5008 -8,0.5249 -8,0.525 -15.75,0.5416 -15.75,0.5416 -210.5,0.2073 -210.5,0.2074 z M 926.72039,1826 l 3.60149,-6.25 82.51522,-143 82.5153,-143 16.5048,-28.75 16.5049,-28.75 0.6019,-1.1537 0.6019,-1.1537 -6.7127,-11.5963 -6.7127,-11.5963 -94.4126,-163.5 -94.41253,-163.5 -2.51283,-4.375 L 922.2897,1115 H 900.76985 879.25 l -140.5,-0.4861 -140.5,-0.486 -45.80576,-0.2387 -45.80575,-0.2386 -31.66651,54.8469 -31.6665,54.847 -32.46323,56.25 -32.46323,56.25 -24.11654,42 -24.11655,42 -12.49467,22 -12.49467,22 -1.88868,3.406 -1.88868,3.4061 0.28281,1.7427 0.28282,1.7428 3.80303,7.8447 3.80304,7.8446 4.80218,9.0066 4.80219,9.0065 9.00244,16.25 9.00244,16.25 11.73169,20.75 11.73169,20.75 16.76276,29.25 16.76276,29.25 41.24425,71.5 41.24426,71.5 11.75999,20.25 11.75999,20.25 2.70186,4.3756 2.70187,4.3756 208.7788,-0.1256 208.7788,-0.1256 z m 813.89261,-509.25 38.9518,-67.5 31.402,-54.5 31.402,-54.5 10.9982,-19.25 10.9982,-19.25 8.7503,-15.5 8.7504,-15.5 6.0106,-11 6.0107,-11 3.9963,-7.8509 3.9963,-7.8508 1.851,-4.3992 1.851,-4.3991 0.2698,-2.5354 0.2698,-2.5353 -2.3806,-4.2147 -2.3806,-4.2146 -11.0037,-19.25 -11.0037,-19.25 -22.6159,-39.25 -22.6159,-39.25 -23.7014,-41 -23.7015,-41 -41.6883,-72.06389 -41.6883,-72.0639 -77.0458,-0.32651 -77.0457,-0.32651 -131.9821,-0.47752 -131.982,-0.47753 -0.3561,0.36793 -0.356,0.36793 -30.6041,53 -30.6041,53 -62.6044,108.5 -62.6044,108.5 -9.8777,17.1596 -9.8776,17.1597 0.2212,0.8403 0.2212,0.8404 53.6412,92.9866 53.6412,92.9866 32.5038,56.2634 32.5038,56.2634 11.011,19 11.011,19 4.9873,8.5 4.9873,8.5 1.6789,2.6256 1.6789,2.6256 207.5864,-0.1256 207.5864,-0.1256 z M 745,933.43924 l 177.25,-0.54857 0.12716,-0.11416 0.12715,-0.11415 103.50669,-179.41686 103.5066,-179.41687 -3.8535,-6.78931 -3.8534,-6.78932 -15.2299,-26.5 -15.2298,-26.5 -74.8668,-129.75 -74.86691,-129.75 -9.24196,-16 -9.24197,-16 -54.44168,0.15772 -54.44168,0.15772 -123.75,0.4577 -123.75,0.4577 -31.25,0.0258 -31.25,0.0258 -11.57465,20.1088 -11.57464,20.10881 -41.61718,72 -41.61718,72 -17.62123,30.75 -17.62123,30.75 -10.4862,18.5 -10.48619,18.5 -12.49066,22.5 -12.49065,22.5 -5.05426,9.5 -5.05426,9.5 -2.84908,5.85763 -2.84907,5.85762 3.90078,7.14238 3.90079,7.14237 8.99538,16 8.99538,16 22.86425,40 22.86425,40 23.19766,40.25 23.19765,40.25 43.97664,76.13806 43.97663,76.13806 30.50854,-0.26915 30.50853,-0.26915 z"
     id="path1" />
  <style
     id="style1">@media (prefers-color-scheme: light) { :root { filter: none; } }
@media (prefers-color-scheme: dark) { :root { filter: none; } }
</style>
</svg>
